# xmcd
# Copyright (C) 1995-1998 Ti Kan
#
# Track frame offsets:
#       150
#       21201
#       36774
#       58296
#       86755
#       104727
#       125418
#       143876
#       164144
#       181995
#       206813
#       235046
#
# Disc length: 3402 seconds
#
# Revision: 0
# Processed by: cddbd v1.5.2PL0 Copyright (c) Steve Scherf et al.
# Submitted via: CD-Import v1.0
#
DISCID=b30d480c
DTITLE=Jacques Palminger And The Kings Of Dub Rock - Mondo Cherry
DYEAR=1900
DGENRE=
TTITLE0=Worte Nur Worte
TTITLE1=Marianna
TTITLE2=Mondo Cherry
TTITLE3=Mishima
TTITLE4=Polizeihubschrauber
TTITLE5=Kolany
TTITLE6=Tüdeldub
TTITLE7=Ich Mag Chopin
TTITLE8=Ohren Am Beispiel
TTITLE9=Playboy
TTITLE10=Harter Rock
TTITLE11=Deutsche Frau
EXTD=
EXTT0=
EXTT1=
EXTT2=
EXTT3=
EXTT4=
EXTT5=
EXTT6=
EXTT7=
EXTT8=
EXTT9=
EXTT10=
EXTT11=
PLAYORDER=
